<svg xmlns="http://www.w3.org/2000/svg" xmlns:xlink="http://www.w3.org/1999/xlink" fill="none" version="1.1" width="24" height="24" viewBox="0 0 24 24"><g><g><path d="M7.5,3.75L7.5,8.25Q7.5,9.18198,8.15901,9.84099Q8.81802,10.5,9.75,10.5L11.25,10.5L11.25,12.75L6,12.75Q5.068020000000001,12.75,4.40901,13.409Q3.75,14.068,3.75,15L3.75,16.5L3,16.5C2.171573,16.5,1.5,17.171599999999998,1.5,18L1.5,21C1.5,21.8284,2.171573,22.5,3,22.5L6,22.5C6.82843,22.5,7.5,21.8284,7.5,21L7.5,18C7.5,17.171599999999998,6.82843,16.5,6,16.5L5.25,16.5L5.25,15Q5.25,14.6893,5.46967,14.4697Q5.68934,14.25,6,14.25L11.25,14.25L11.25,16.5L10.5,16.5C9.67157,16.5,9,17.171599999999998,9,18L9,21C9,21.8284,9.67157,22.5,10.5,22.5L13.5,22.5C14.3284,22.5,15,21.8284,15,21L15,18C15,17.171599999999998,14.3284,16.5,13.5,16.5L12.75,16.5L12.75,14.25L18,14.25Q18.3107,14.25,18.5303,14.4697Q18.75,14.6893,18.75,15L18.75,16.5L18,16.5C17.171599999999998,16.5,16.5,17.171599999999998,16.5,18L16.5,21C16.5,21.8284,17.171599999999998,22.5,18,22.5L21,22.5C21.8284,22.5,22.5,21.8284,22.5,21L22.5,18C22.5,17.171599999999998,21.8284,16.5,21,16.5L20.25,16.5L20.25,15Q20.25,14.068,19.591,13.409Q18.932,12.75,18,12.75L12.75,12.75L12.75,10.5L14.25,10.5Q15.182,10.5,15.841,9.84099Q16.5,9.18198,16.5,8.25L16.5,3.75Q16.5,2.8180199999999997,15.841,2.15901Q15.182,1.5,14.25,1.5L9.75,1.5Q8.81802,1.5,8.15901,2.15901Q7.5,2.8180199999999997,7.5,3.75ZM12,9L14.25,9Q14.5607,9,14.7803,8.78033Q15,8.56066,15,8.25L15,3.75Q15,3.43934,14.7803,3.21967Q14.5607,3,14.25,3L9.75,3Q9.43934,3,9.21967,3.21967Q9,3.43934,9,3.75L9,8.25Q9,8.56066,9.21967,8.78033Q9.43934,9,9.75,9L12,9ZM6,21L6,18L3,18L3,21L6,21ZM13.5,18L13.5,21L10.5,21L10.5,18L13.5,18ZM21,18L21,21L18,21L18,18L21,18Z" fill-rule="evenodd" fill="#FFFFFF" fill-opacity="1"/></g></g></svg>