<?xml version="1.0" encoding="utf-8"?>
<!-- Generator: Adobe Illustrator 23.0.1, SVG Export Plug-In . SVG Version: 6.00 Build 0)  -->
<svg version="1.1" id="圖層_1" xmlns="http://www.w3.org/2000/svg" xmlns:xlink="http://www.w3.org/1999/xlink" x="0px" y="0px"
	 viewBox="0 0 344.9 107.2" style="enable-background:new 0 0 344.9 107.2;" xml:space="preserve">
<style type="text/css">
	.st0{fill:url(#SVGID_1_);}
	.st1{fill:url(#SVGID_2_);}
	.st2{fill:url(#triangle36_1_);}
	.st3{fill:url(#triangle36-2_1_);}
	.st4{fill:url(#triangle36-3_1_);}
	.st5{fill:url(#triangle36-4_1_);}
	.st6{fill:url(#triangle36-5_1_);}
	.st7{fill:url(#triangle36-6_1_);}
	.st8{fill:url(#triangle36-7_1_);}
	.st9{fill:url(#triangle36-8_1_);}
	.st10{fill:url(#triangle36-9_1_);}
	.st11{fill:url(#triangle36-10_1_);}
	.st12{fill:url(#triangle36-11_1_);}
	.st13{fill:url(#triangle36-12_1_);}
	.st14{fill:url(#triangle36-13_1_);}
	.st15{fill:url(#triangle36-14_1_);}
	.st16{fill:url(#triangle36-15_1_);}
	.st17{fill:url(#triangle36-16_1_);}
	.st18{fill:url(#triangle36-17_1_);}
	.st19{fill:url(#triangle36-18_1_);}
	.st20{fill:url(#triangle36-19_1_);}
	.st21{fill:url(#triangle36-20_1_);}
	.st22{fill:url(#triangle36-21_1_);}
	.st23{fill:url(#triangle36-22_1_);}
	.st24{fill:url(#triangle36-23_1_);}
	.st25{fill:url(#triangle36-24_1_);}
	.st26{fill:url(#triangle36-25_1_);}
	.st27{fill:url(#triangle36-26_1_);}
	.st28{fill:url(#triangle36-27_1_);}
	.st29{fill:url(#triangle36-28_1_);}
	.st30{fill:url(#triangle36-29_1_);}
	.st31{fill:url(#triangle36-30_1_);}
	.st32{fill:url(#triangle36-31_1_);}
	.st33{fill:url(#triangle36-32_1_);}
	.st34{fill:url(#triangle36-33_1_);}
	.st35{fill:url(#triangle36-34_1_);}
	.st36{fill:url(#triangle36-35_1_);}
	.st37{fill:url(#triangle36-36_1_);}
	.st38{fill:url(#triangle36-37_1_);}
	.st39{fill:url(#triangle36-38_1_);}
	.st40{fill:url(#triangle36-39_1_);}
	.st41{fill:url(#triangle36-40_1_);}
	.st42{fill:url(#triangle36-41_1_);}
	.st43{fill:url(#triangle36-42_1_);}
	.st44{fill:url(#triangle36-43_1_);}
	.st45{fill:url(#triangle36-44_1_);}
</style>
<title>資產 4</title>
<linearGradient id="SVGID_1_" gradientUnits="userSpaceOnUse" x1="67.7" y1="-125.65" x2="303.18" y2="109.83" gradientTransform="matrix(1 0 0 -1 0 110)">
	<stop  offset="0" style="stop-color:#519A9E"/>
	<stop  offset="1" style="stop-color:#066C98"/>
</linearGradient>
<polygon class="st0" points="309.2,48.1 271.7,14.6 206.1,0 167.2,11.7 144.1,23.6 120,72.4 90.8,89.5 87.9,101.1 138.5,101.6 
	199,102.4 235.5,107.2 302.1,105.3 339.8,99.2 344.9,72.7 "/>
<linearGradient id="SVGID_2_" gradientUnits="userSpaceOnUse" x1="94.5698" y1="93.4901" x2="70.0798" y2="17.18" gradientTransform="matrix(1 0 0 -1 0 110)">
	<stop  offset="0" style="stop-color:#519A9E"/>
	<stop  offset="1" style="stop-color:#066C98"/>
</linearGradient>
<polygon class="st1" points="148.7,48.3 134.7,36.8 105.2,37.5 70.3,15.5 39.3,23.6 28.6,42.8 10.2,49.9 0,68.2 4.2,80.3 27.5,89.1 
	75.4,94.9 118.2,90.1 152.3,79.5 152.3,61.6 "/>
<linearGradient id="triangle36_1_" gradientUnits="userSpaceOnUse" x1="-557.2056" y1="-223.4457" x2="-556.8956" y2="-223.1257" gradientTransform="matrix(59 0 0 79 33011.1484 17687.1602)">
	<stop  offset="0" style="stop-color:#B3EBEF"/>
	<stop  offset="1" style="stop-color:#7ACFD4"/>
</linearGradient>
<polygon id="triangle36" class="st2" points="134.7,36.8 148.7,48.3 152.3,61.6 "/>
<linearGradient id="triangle36-2_1_" gradientUnits="userSpaceOnUse" x1="-553.7737" y1="-224.6391" x2="-553.4937" y2="-224.3591" gradientTransform="matrix(90 0 0 85 49838.6289 19163.1211)">
	<stop  offset="0" style="stop-color:#6DA8AB"/>
	<stop  offset="1" style="stop-color:#5B9EA2"/>
</linearGradient>
<polygon id="triangle36-2" class="st3" points="4.2,80.3 27.5,89.1 0,68.2 "/>
<linearGradient id="triangle36-3_1_" gradientUnits="userSpaceOnUse" x1="-553.6619" y1="-225.9258" x2="-553.3719" y2="-225.6359" gradientTransform="matrix(86 0 0 125 47615.4688 28296.1797)">
	<stop  offset="0" style="stop-color:#5EA5AA"/>
	<stop  offset="1" style="stop-color:#2D9EA5"/>
</linearGradient>
<polygon id="triangle36-3" class="st4" points="0,68.2 27.5,89.1 10.1,55.7 "/>
<linearGradient id="triangle36-4_1_" gradientUnits="userSpaceOnUse" x1="-551.3641" y1="-224.2123" x2="-551.0541" y2="-223.9023" gradientTransform="matrix(49 0 0 91 27014.25 20448.0781)">
	<stop  offset="0" style="stop-color:#7AD6DC"/>
	<stop  offset="1" style="stop-color:#77E0E7"/>
</linearGradient>
<polygon id="triangle36-4" class="st5" points="0,68.2 10.1,55.7 10.2,49.9 "/>
<linearGradient id="triangle36-5_1_" gradientUnits="userSpaceOnUse" x1="-555.7668" y1="-223.0565" x2="-555.4568" y2="-222.7465" gradientTransform="matrix(111 0 0 82 61759.2188 18307.1406)">
	<stop  offset="0" style="stop-color:#98E2E7"/>
	<stop  offset="1" style="stop-color:#4DD3DC"/>
</linearGradient>
<polygon id="triangle36-5" class="st6" points="70.3,15.5 105.2,37.5 94.8,41.2 "/>
<linearGradient id="triangle36-6_1_" gradientUnits="userSpaceOnUse" x1="-552.5532" y1="-220.2117" x2="-552.3632" y2="-220.0217" gradientTransform="matrix(59 0 0 51 32614.1504 11275.0195)">
	<stop  offset="0" style="stop-color:#35D1DB"/>
	<stop  offset="1" style="stop-color:#93DFE4"/>
</linearGradient>
<polygon id="triangle36-6" class="st7" points="10.1,55.7 10.2,49.9 28.6,42.8 "/>
<linearGradient id="triangle36-7_1_" gradientUnits="userSpaceOnUse" x1="-552.5463" y1="-226.6477" x2="-552.2563" y2="-226.3577" gradientTransform="matrix(59 0 0 166 32614.1504 37657.5703)">
	<stop  offset="0" style="stop-color:#1AB1BC"/>
	<stop  offset="1" style="stop-color:#49A9AF"/>
</linearGradient>
<polygon id="triangle36-7" class="st8" points="10.1,55.7 27.5,89.1 28.6,42.8 "/>
<linearGradient id="triangle36-8_1_" gradientUnits="userSpaceOnUse" x1="-556.0109" y1="-210.7207" x2="-555.6909" y2="-210.4007" gradientTransform="matrix(78 0 0 25 43463.1484 5305.5293)">
	<stop  offset="0" style="stop-color:#2CCFD9"/>
	<stop  offset="1" style="stop-color:#48D2DC"/>
</linearGradient>
<polygon id="triangle36-8" class="st9" points="94.8,41.2 105.2,37.5 119.3,45.3 "/>
<linearGradient id="triangle36-9_1_" gradientUnits="userSpaceOnUse" x1="-556.3446" y1="-212.0847" x2="-556.0246" y2="-211.7747" gradientTransform="matrix(94 0 0 27 52404.7891 5762.1797)">
	<stop  offset="0" style="stop-color:#6EDDE5"/>
	<stop  offset="1" style="stop-color:#7DDEE5"/>
</linearGradient>
<polygon id="triangle36-9" class="st10" points="105.2,37.5 134.7,36.8 119.3,45.3 "/>
<linearGradient id="triangle36-10_1_" gradientUnits="userSpaceOnUse" x1="-556.7053" y1="-223.4331" x2="-556.3953" y2="-223.1131" gradientTransform="matrix(105 0 0 79 58574.4805 17687.1602)">
	<stop  offset="0" style="stop-color:#94E7EC"/>
	<stop  offset="1" style="stop-color:#1EB9C3"/>
</linearGradient>
<polygon id="triangle36-10" class="st11" points="134.7,36.8 152.3,61.6 119.3,45.3 "/>
<linearGradient id="triangle36-11_1_" gradientUnits="userSpaceOnUse" x1="-554.8673" y1="-221.1879" x2="-554.5573" y2="-220.8679" gradientTransform="matrix(106 0 0 61 58842.2695 13517.2891)">
	<stop  offset="0" style="stop-color:#45B2B9"/>
	<stop  offset="1" style="stop-color:#51BAC0"/>
</linearGradient>
<polygon id="triangle36-11" class="st12" points="28.6,42.8 39.3,23.6 61.9,29.3 "/>
<linearGradient id="triangle36-12_1_" gradientUnits="userSpaceOnUse" x1="-554.9083" y1="-217.6929" x2="-554.5983" y2="-217.3829" gradientTransform="matrix(99 0 0 44 54978.7422 9592.7305)">
	<stop  offset="0" style="stop-color:#7FDCE2"/>
	<stop  offset="1" style="stop-color:#68D1D7"/>
</linearGradient>
<polygon id="triangle36-12" class="st13" points="39.3,23.6 70.3,15.5 61.9,29.3 "/>
<linearGradient id="triangle36-13_1_" gradientUnits="userSpaceOnUse" x1="-555.5428" y1="-223.0478" x2="-555.2328" y2="-222.7378" gradientTransform="matrix(105 0 0 82 58391.4805 18307.1406)">
	<stop  offset="0" style="stop-color:#91E2E7"/>
	<stop  offset="1" style="stop-color:#22C0CA"/>
</linearGradient>
<polygon id="triangle36-13" class="st14" points="70.3,15.5 94.8,41.2 61.9,29.3 "/>
<linearGradient id="triangle36-14_1_" gradientUnits="userSpaceOnUse" x1="-555.2745" y1="-226.5477" x2="-554.9645" y2="-226.2277" gradientTransform="matrix(134 0 0 166 74427.3828 37657.5703)">
	<stop  offset="0" style="stop-color:#2D939A"/>
	<stop  offset="1" style="stop-color:#2D969C"/>
</linearGradient>
<polygon id="triangle36-14" class="st15" points="27.5,89.1 28.6,42.8 69.1,83 "/>
<linearGradient id="triangle36-15_1_" gradientUnits="userSpaceOnUse" x1="-555.4989" y1="-219.8315" x2="-555.0889" y2="-219.4216" gradientTransform="matrix(154 0 0 38 85563.1797 8431.7793)">
	<stop  offset="0" style="stop-color:#2F8488"/>
	<stop  offset="1" style="stop-color:#2D8286"/>
</linearGradient>
<polygon id="triangle36-15" class="st16" points="27.5,89.1 75.4,94.9 69.1,83 "/>
<linearGradient id="triangle36-16_1_" gradientUnits="userSpaceOnUse" x1="-555.1466" y1="-226.5459" x2="-554.8366" y2="-226.2359" gradientTransform="matrix(129 0 0 171 71648.4297 38761.2031)">
	<stop  offset="0" style="stop-color:#43B1B9"/>
	<stop  offset="1" style="stop-color:#0A8D95"/>
</linearGradient>
<polygon id="triangle36-16" class="st17" points="28.6,42.8 61.9,29.3 69.1,83 "/>
<linearGradient id="triangle36-17_1_" gradientUnits="userSpaceOnUse" x1="-555.5236" y1="-226.5053" x2="-555.2036" y2="-226.1853" gradientTransform="matrix(105 0 0 171 58391.4805 38761.2031)">
	<stop  offset="0" style="stop-color:#0EA0A9"/>
	<stop  offset="1" style="stop-color:#1199A1"/>
</linearGradient>
<polygon id="triangle36-17" class="st18" points="61.9,29.3 94.8,41.2 69.1,83 "/>
<linearGradient id="triangle36-18_1_" gradientUnits="userSpaceOnUse" x1="-556.0424" y1="-219.7005" x2="-555.7224" y2="-219.3905" gradientTransform="matrix(156 0 0 38 86810.7578 8431.7793)">
	<stop  offset="0" style="stop-color:#03676D"/>
	<stop  offset="1" style="stop-color:#2B7F84"/>
</linearGradient>
<polygon id="triangle36-18" class="st19" points="69.1,83 75.4,94.9 118.1,84.9 "/>
<linearGradient id="triangle36-19_1_" gradientUnits="userSpaceOnUse" x1="-556.0691" y1="-226.0048" x2="-555.7591" y2="-225.6948" gradientTransform="matrix(156 0 0 139 86810.7578 31460.7578)">
	<stop  offset="0" style="stop-color:#047D84"/>
	<stop  offset="1" style="stop-color:#1198A0"/>
</linearGradient>
<polygon id="triangle36-19" class="st20" points="69.1,83 94.8,41.2 118.1,84.9 "/>
<linearGradient id="triangle36-20_1_" gradientUnits="userSpaceOnUse" x1="-555.9526" y1="-218.9374" x2="-555.7826" y2="-218.7674" gradientTransform="matrix(136 0 0 35 75694.9609 7749.8008)">
	<stop  offset="0" style="stop-color:#4D9499"/>
	<stop  offset="1" style="stop-color:#438D92"/>
</linearGradient>
<polygon id="triangle36-20" class="st21" points="75.4,94.9 118.2,90.1 118.1,84.9 "/>
<linearGradient id="triangle36-21_1_" gradientUnits="userSpaceOnUse" x1="-555.9411" y1="-226.1035" x2="-555.6211" y2="-225.7935" gradientTransform="matrix(78 0 0 139 43463.1484 31460.7578)">
	<stop  offset="0" style="stop-color:#19B2BB"/>
	<stop  offset="1" style="stop-color:#10959E"/>
</linearGradient>
<polygon id="triangle36-21" class="st22" points="94.8,41.2 119.3,45.3 118.1,84.9 "/>
<linearGradient id="triangle36-22_1_" gradientUnits="userSpaceOnUse" x1="-556.6344" y1="-222.1849" x2="-556.3244" y2="-221.8649" gradientTransform="matrix(114 0 0 52 63576.5898 11631.3516)">
	<stop  offset="0" style="stop-color:#569BA0"/>
	<stop  offset="1" style="stop-color:#388B90"/>
</linearGradient>
<polygon id="triangle36-22" class="st23" points="118.2,90.1 152.3,79.5 118.1,84.9 "/>
<linearGradient id="triangle36-23_1_" gradientUnits="userSpaceOnUse" x1="-556.7233" y1="-225.7367" x2="-556.4133" y2="-225.4267" gradientTransform="matrix(109 0 0 126 60797.6406 28492.5078)">
	<stop  offset="0" style="stop-color:#16AAB4"/>
	<stop  offset="1" style="stop-color:#07848C"/>
</linearGradient>
<polygon id="triangle36-23" class="st24" points="119.3,45.3 152.3,61.6 118.1,84.9 "/>
<linearGradient id="triangle36-24_1_" gradientUnits="userSpaceOnUse" x1="-556.6915" y1="-223.7536" x2="-556.3815" y2="-223.4436" gradientTransform="matrix(109 0 0 74 60797.6406 16619.5313)">
	<stop  offset="0" style="stop-color:#519A9E"/>
	<stop  offset="1" style="stop-color:#06777E"/>
</linearGradient>
<polygon id="triangle36-24" class="st25" points="152.3,79.5 152.3,61.6 118.1,84.9 "/>
<linearGradient id="triangle36-25_1_" gradientUnits="userSpaceOnUse" x1="-557.2332" y1="-227.8228" x2="-556.8332" y2="-227.4128" gradientTransform="matrix(70 0 0 68 39103.8398 15573.5703)">
	<stop  offset="0" style="stop-color:#046C72"/>
	<stop  offset="1" style="stop-color:#057379"/>
</linearGradient>
<polygon id="triangle36-25" class="st26" points="87.9,101.1 90.8,89.5 140.2,95.1 "/>
<linearGradient id="triangle36-26_1_" gradientUnits="userSpaceOnUse" x1="-557.3205" y1="-228.2136" x2="-556.8305" y2="-227.7236" gradientTransform="matrix(67 0 0 111 37436.4688 25391.6094)">
	<stop  offset="0" style="stop-color:#088B93"/>
	<stop  offset="1" style="stop-color:#138A92"/>
</linearGradient>
<polygon id="triangle36-26" class="st27" points="90.8,89.5 120,72.4 140.2,95.1 "/>
<linearGradient id="triangle36-27_1_" gradientUnits="userSpaceOnUse" x1="-561.216" y1="-228.4459" x2="-560.556" y2="-227.7959" gradientTransform="matrix(54 0 0 133 30621.1992 30415.7969)">
	<stop  offset="0" style="stop-color:#259097"/>
	<stop  offset="1" style="stop-color:#93D0D4"/>
</linearGradient>
<polygon id="triangle36-27" class="st28" points="339.8,99.2 344.9,72.7 309.2,48.1 "/>
<linearGradient id="triangle36-28_1_" gradientUnits="userSpaceOnUse" x1="-557.5605" y1="-226.0344" x2="-557.1205" y2="-225.5944" gradientTransform="matrix(158 0 0 44 88292.3438 9947.7305)">
	<stop  offset="0" style="stop-color:#49C6CE"/>
	<stop  offset="1" style="stop-color:#9DD5D8"/>
</linearGradient>
<polygon id="triangle36-28" class="st29" points="206.1,0 246.7,24.1 271.7,14.6 "/>
<linearGradient id="triangle36-29_1_" gradientUnits="userSpaceOnUse" x1="-559.5998" y1="-228.5767" x2="-559.1098" y2="-228.0967" gradientTransform="matrix(60 0 0 161 33824.9414 36815.9375)">
	<stop  offset="0" style="stop-color:#41ADB4"/>
	<stop  offset="1" style="stop-color:#54A8AD"/>
</linearGradient>
<polygon id="triangle36-29" class="st30" points="246.7,24.1 257.9,98.9 271.7,14.6 "/>
<linearGradient id="triangle36-30_1_" gradientUnits="userSpaceOnUse" x1="-558.5056" y1="-228.5572" x2="-557.8456" y2="-227.8872" gradientTransform="matrix(114 0 0 161 63914.5898 36815.9375)">
	<stop  offset="0" style="stop-color:#067F86"/>
	<stop  offset="1" style="stop-color:#9FD6DA"/>
</linearGradient>
<polygon id="triangle36-30" class="st31" points="257.9,98.9 309.2,48.1 271.7,14.6 "/>
<linearGradient id="triangle36-31_1_" gradientUnits="userSpaceOnUse" x1="-557.1157" y1="-228.4174" x2="-556.7758" y2="-228.0774" gradientTransform="matrix(93 0 0 148 51948 33839.6875)">
	<stop  offset="0" style="stop-color:#24AFB9"/>
	<stop  offset="1" style="stop-color:#0C9098"/>
</linearGradient>
<polygon id="triangle36-31" class="st32" points="120,72.4 140.2,95.1 169.9,23.1 "/>
<linearGradient id="triangle36-32_1_" gradientUnits="userSpaceOnUse" x1="-557.7984" y1="-226.0958" x2="-555.8484" y2="-224.1359" gradientTransform="matrix(93 0 0 37 51948 8384.4492)">
	<stop  offset="0" style="stop-color:#1CA0A9"/>
	<stop  offset="1" style="stop-color:#169BA4"/>
</linearGradient>
<polygon id="triangle36-32" class="st33" points="120,72.4 144.1,23.6 169.9,23.1 "/>
<linearGradient id="triangle36-33_1_" gradientUnits="userSpaceOnUse" x1="-557.3247" y1="-228.522" x2="-556.8347" y2="-228.032" gradientTransform="matrix(121 0 0 163 67570.1172 37279.5938)">
	<stop  offset="0" style="stop-color:#057A81"/>
	<stop  offset="1" style="stop-color:#08858D"/>
</linearGradient>
<polygon id="triangle36-33" class="st34" points="140.2,95.1 199,102.4 169.9,23.1 "/>
<linearGradient id="triangle36-34_1_" gradientUnits="userSpaceOnUse" x1="-557.939" y1="-226.7335" x2="-557.5689" y2="-226.3735" gradientTransform="matrix(53 0 0 66 29716.4102 14969.9219)">
	<stop  offset="0" style="stop-color:#20A3AC"/>
	<stop  offset="1" style="stop-color:#53B9C0"/>
</linearGradient>
<polygon id="triangle36-34" class="st35" points="144.1,23.6 167.2,11.7 169.9,23.1 "/>
<linearGradient id="triangle36-35_1_" gradientUnits="userSpaceOnUse" x1="-557.6365" y1="-226.7386" x2="-557.3964" y2="-226.4986" gradientTransform="matrix(77 0 0 65 43115.3594 14740.5898)">
	<stop  offset="0" style="stop-color:#84DCE2"/>
	<stop  offset="1" style="stop-color:#1CB7C1"/>
</linearGradient>
<polygon id="triangle36-35" class="st36" points="167.2,11.7 206.1,0 169.9,23.1 "/>
<linearGradient id="triangle36-36_1_" gradientUnits="userSpaceOnUse" x1="-557.4127" y1="-225.9922" x2="-556.9127" y2="-225.4922" gradientTransform="matrix(158 0 0 44 88232.3438 9947.7305)">
	<stop  offset="0" style="stop-color:#19B2BC"/>
	<stop  offset="1" style="stop-color:#2EA6AD"/>
</linearGradient>
<polygon id="triangle36-36" class="st37" points="206.1,0 246.7,24.1 169.9,23.1 "/>
<linearGradient id="triangle36-37_1_" gradientUnits="userSpaceOnUse" x1="-557.3122" y1="-228.6116" x2="-556.8222" y2="-228.1216" gradientTransform="matrix(158 0 0 163 88232.3438 37279.5938)">
	<stop  offset="0" style="stop-color:#088289"/>
	<stop  offset="1" style="stop-color:#2EA5AD"/>
</linearGradient>
<polygon id="triangle36-37" class="st38" points="199,102.4 246.7,24.1 169.9,23.1 "/>
<linearGradient id="triangle36-38_1_" gradientUnits="userSpaceOnUse" x1="-558.0141" y1="-228.6178" x2="-557.5241" y2="-228.1278" gradientTransform="matrix(98 0 0 171 54884.9492 39116.2031)">
	<stop  offset="0" style="stop-color:#087980"/>
	<stop  offset="1" style="stop-color:#49A2A8"/>
</linearGradient>
<polygon id="triangle36-38" class="st39" points="199,102.4 246.7,24.1 235.5,107.2 "/>
<linearGradient id="triangle36-39_1_" gradientUnits="userSpaceOnUse" x1="-560.3044" y1="-228.5447" x2="-559.8244" y2="-228.0647" gradientTransform="matrix(46 0 0 171 26006.8789 39116.2031)">
	<stop  offset="0" style="stop-color:#40A6AC"/>
	<stop  offset="1" style="stop-color:#218489"/>
</linearGradient>
<polygon id="triangle36-39" class="st40" points="246.7,24.1 257.9,98.9 235.5,107.2 "/>
<linearGradient id="triangle36-40_1_" gradientUnits="userSpaceOnUse" x1="-557.1434" y1="-227.681" x2="-556.7634" y2="-227.3009" gradientTransform="matrix(70 0 0 35 39103.8398 8061.8008)">
	<stop  offset="0" style="stop-color:#046D73"/>
	<stop  offset="1" style="stop-color:#1B7A7F"/>
</linearGradient>
<polygon id="triangle36-40" class="st41" points="87.9,101.1 140.2,95.1 138.5,101.6 "/>
<linearGradient id="triangle36-41_1_" gradientUnits="userSpaceOnUse" x1="-557.2701" y1="-227.2256" x2="-556.7801" y2="-226.7355" gradientTransform="matrix(125 0 0 23 69793.2813 5321.8799)">
	<stop  offset="0" style="stop-color:#03696F"/>
	<stop  offset="1" style="stop-color:#1E7D82"/>
</linearGradient>
<polygon id="triangle36-41" class="st42" points="140.2,95.1 199,102.4 138.5,101.6 "/>
<linearGradient id="triangle36-42_1_" gradientUnits="userSpaceOnUse" x1="-558.0269" y1="-226.6776" x2="-557.5469" y2="-226.1975" gradientTransform="matrix(137 0 0 17 76674.75 3953.9199)">
	<stop  offset="0" style="stop-color:#3F8D91"/>
	<stop  offset="1" style="stop-color:#2D8186"/>
</linearGradient>
<polygon id="triangle36-42" class="st43" points="235.5,107.2 257.9,98.9 302.1,105.3 "/>
<linearGradient id="triangle36-43_1_" gradientUnits="userSpaceOnUse" x1="-558.4152" y1="-228.5407" x2="-557.9352" y2="-228.0608" gradientTransform="matrix(114 0 0 153 63914.5898 35002.3281)">
	<stop  offset="0" style="stop-color:#05747A"/>
	<stop  offset="1" style="stop-color:#6EB0B5"/>
</linearGradient>
<polygon id="triangle36-43" class="st44" points="257.9,98.9 309.2,48.1 302.1,105.3 "/>
<linearGradient id="triangle36-44_1_" gradientUnits="userSpaceOnUse" x1="-563.4796" y1="-228.7786" x2="-562.4796" y2="-227.7786" gradientTransform="matrix(35 0 0 153 20019.1895 35002.3281)">
	<stop  offset="0" style="stop-color:#74AEB1"/>
	<stop  offset="1" style="stop-color:#36868B"/>
</linearGradient>
<polygon id="triangle36-44" class="st45" points="309.2,48.1 339.8,99.2 302.1,105.3 "/>
</svg>
