<svg xmlns="http://www.w3.org/2000/svg" xmlns:xlink="http://www.w3.org/1999/xlink" width="24" height="24" viewBox="0 0 24 24">
  <defs>
    <filter id="Ellipse_1" x="-2" y="-2" width="28" height="28" filterUnits="userSpaceOnUse">
      <feOffset input="SourceAlpha"/>
      <feGaussianBlur stdDeviation="1" result="blur"/>
      <feFlood flood-opacity="0.302"/>
      <feComposite operator="in" in2="blur"/>
      <feComposite in="SourceGraphic"/>
    </filter>
    <clipPath id="clip-checked_">
      <rect width="24" height="24"/>
    </clipPath>
  </defs>
  <g id="checked_" data-name="checked " clip-path="url(#clip-checked_)">
    <g id="Group_3" data-name="Group 3" transform="translate(1 1)">
      <g id="Group_2" data-name="Group 2">
        <g id="Group_1" data-name="Group 1">
          <g transform="matrix(1, 0, 0, 1, -1, -1)" filter="url(#Ellipse_1)">
            <g id="Ellipse_1-2" data-name="Ellipse 1" transform="translate(1 1)" fill="#0074ff" stroke="#fff" stroke-width="2">
              <circle cx="11" cy="11" r="11" stroke="none"/>
              <circle cx="11" cy="11" r="10" fill="none"/>
            </g>
          </g>
        </g>
      </g>
      <path id="Union_1" data-name="Union 1" d="M3.407,7.932.36,4.461A1.488,1.488,0,0,1,.426,2.448a1.286,1.286,0,0,1,1.894.07L4.527,5.034,9.251.383a1.284,1.284,0,0,1,1.894.07,1.486,1.486,0,0,1-.066,2.012L5.685,7.776a2.252,2.252,0,0,1-.851.527,1.271,1.271,0,0,1-.448.082A1.3,1.3,0,0,1,3.407,7.932Z" transform="translate(5.111 7.388)" fill="#fff"/>
    </g>
  </g>
</svg>
