<svg xmlns="http://www.w3.org/2000/svg" xmlns:xlink="http://www.w3.org/1999/xlink" width="24" height="24" viewBox="0 0 24 24">
  <defs>
    <clipPath id="clip-_1:1">
      <rect width="24" height="24"/>
    </clipPath>
  </defs>
  <g id="_1:1" data-name="1:1" clip-path="url(#clip-_1:1)" fill="#444444" stroke="#444444" stroke-width="0.5">
    <path id="Union_6" data-name="Union 6" d="M-659,77a2,2,0,0,1-2-2V59a2,2,0,0,1,2-2h16a2,2,0,0,1,2,2V75a2,2,0,0,1-2,2Zm-.421-1.579h16.843V58.579h-16.843Zm8-4.794a.556.556,0,0,1-.167-.406.567.567,0,0,1,.167-.409.542.542,0,0,1,.4-.172.558.558,0,0,1,.411.172.562.562,0,0,1,.169.409.551.551,0,0,1-.169.406.56.56,0,0,1-.411.17A.543.543,0,0,1-651.424,70.628Zm4.417.057V64.317a1.942,1.942,0,0,1-.285.223,4.458,4.458,0,0,1-.421.249c-.156.083-.32.159-.493.231a3.6,3.6,0,0,1-.507.17v-.853a4.713,4.713,0,0,0,.589-.209c.208-.087.411-.184.612-.292s.39-.221.568-.339a4.45,4.45,0,0,0,.463-.347h.795v7.536Zm-7.956,0V64.317a1.99,1.99,0,0,1-.285.223,4.365,4.365,0,0,1-.422.249c-.156.083-.32.159-.493.231a3.634,3.634,0,0,1-.506.17v-.853a4.755,4.755,0,0,0,.588-.209c.208-.087.411-.184.612-.292s.39-.221.568-.339a4.45,4.45,0,0,0,.463-.347h.795v7.536Zm3.539-4.4a.559.559,0,0,1-.167-.407.54.54,0,0,1,.167-.4.552.552,0,0,1,.4-.165.569.569,0,0,1,.411.165.535.535,0,0,1,.169.4.553.553,0,0,1-.169.407.562.562,0,0,1-.411.169A.546.546,0,0,1-651.424,66.281Z" transform="translate(663 -55)" />
  </g>
</svg>